<svg xmlns="http://www.w3.org/2000/svg" width="40.424" height="42.344" viewBox="0 0 40.424 42.344">
  <path id="Icon_feather-phone" data-name="Icon feather-phone" d="M40.588,32.453v5.922A4.04,4.04,0,0,1,39.369,41.3a3.655,3.655,0,0,1-2.883,1.023,36.131,36.131,0,0,1-16.238-6.06A37.644,37.644,0,0,1,8.959,24.419,40.322,40.322,0,0,1,3.183,7.3a4.071,4.071,0,0,1,.969-3.017A3.686,3.686,0,0,1,6.927,3h5.645a3.825,3.825,0,0,1,3.763,3.4,26.374,26.374,0,0,0,1.317,5.547,4.09,4.09,0,0,1-.847,4.165l-2.39,2.507A30.887,30.887,0,0,0,25.705,30.459l2.39-2.507a3.636,3.636,0,0,1,3.97-.888,23.237,23.237,0,0,0,5.287,1.382A3.9,3.9,0,0,1,40.588,32.453Z" transform="translate(-1.666 -1.5)" fill="none" stroke="#313131" stroke-linecap="round" stroke-linejoin="round" stroke-width="3"/>
</svg>
